Coordinates
version=1
nRows=21
nColumns=19
inDegrees=yes

Units are S.I. units (second, meters, Newtons, ...)
If the header above contains a line with 'inDegrees', this indicates whether rotational values are in degrees (yes) or radians (no).

endheader
time	pelvis_tilt	pelvis_list	pelvis_rotation	pelvis_tx	pelvis_ty	pelvis_tz	hip_flexion_r	hip_adduction_r	hip_rotation_r	knee_angle_r	knee_angle_r_beta	ankle_angle_r	hip_flexion_l	hip_adduction_l	hip_rotation_l	knee_angle_l	knee_angle_l_beta	ankle_angle_l
     15.18666667	     -3.26218387	     -6.62738953	     -0.28989934	      2.25052910	      0.94909851	      1.02452961	     28.36642352	      7.26046181	     -9.94020897	     17.94735373	      0.31324041	     -3.41072773	     -9.74476833	     -9.48238695	     -7.17413380	     80.84865800	      1.41107528	    -23.53166288
     15.19333333	     -2.86154237	     -6.94847829	     -0.59417600	      2.24936995	      0.94447933	      1.02519241	     28.15555798	      7.48772017	    -10.51895786	     21.08315353	      0.36797045	     -2.06810449	     -8.27532664	     -9.79353622	     -6.80752290	     85.05610598	      1.48450910	    -22.60276819
     15.20000000	     -2.54004492	     -7.10675949	     -0.92301265	      2.24781311	      0.93960612	      1.02566117	     28.05479452	      7.55211888	    -10.79700533	     24.51098611	      0.42779741	     -0.28780468	     -6.57037881	     -9.86906214	     -6.34605405	     89.21739910	      1.55713736	    -21.54216894
     15.20666667	     -2.27550861	     -7.13197540	     -1.26767957	      2.24593802	      0.93461090	      1.02599677	     27.97584251	      7.51681762	    -10.77248767	     28.07057677	      0.48992399	      1.88999803	     -4.66228109	     -9.75560636	     -5.81838461	     93.28486089	      1.62812796	    -20.42769244
     15.21333333	     -2.07668647	     -7.01258435	     -1.61258851	      2.24368080	      0.92966199	      1.02620762	     27.87202949	      7.39472051	    -10.44919224	     31.60106783	      0.55154268	      4.39679688	     -2.51898643	     -9.45959478	     -5.23798327	     97.22923781	      1.69697033	    -19.31406344
     15.22000000	     -1.96187591	     -6.80272565	     -1.99023339	      2.24114706	      0.92485014	      1.02641661	     27.69882767	      7.27364327	     -9.84630116	     34.95005649	      0.60999356	      7.09857484	     -0.15372842	     -9.08515463	     -4.68921930	    101.00372047	      1.76284748	    -18.18795915
     15.22666667	     -1.88325045	     -6.48049864	     -2.35073602	      2.23833080	      0.92041033	      1.02659751	     27.35869890	      7.10880454	     -9.05017495	     37.99871813	      0.66320274	      9.97347625	      2.41124710	     -8.61806188	     -4.13949862	    104.55740658	      1.82487100	    -17.12401114
     15.23333333	     -1.85447038	     -6.07877360	     -2.70605275	      2.23529977	      0.91645055	      1.02681223	     26.82394264	      6.92182287	     -8.11874107	     40.64355075	      0.70936378	     12.84475181	      5.16733069	     -8.11528603	     -3.62316485	    107.84880450	      1.88231673	    -16.07114539
     15.24000000	     -1.90059139	     -5.62440389	     -3.04580703	      2.23218278	      0.91304454	      1.02710524	     26.07396709	      6.72429575	     -7.09824221	     42.79462705	      0.74690714	     15.67091453	      8.12905604	     -7.62997093	     -3.15059611	    110.82994991	      1.93434754	    -15.07201915
     15.24666667	     -1.41123533	     -5.36891263	     -3.32310777	      2.22927753	      0.91097902	      1.02746683	     24.32724111	      6.70400646	     -6.14815741	     44.24336999	      0.77219248	     18.38779356	     10.49824822	     -7.48382950	     -2.76009455	    113.35296657	      1.97838248	    -14.02970335
     15.25333333	     -1.85284836	     -4.47597021	     -3.60102249	      2.22609765	      0.90855832	      1.02791358	     23.51194155	      6.01869149	     -5.05825245	     45.53699717	      0.79477053	     20.85104598	     14.14358952	     -6.59932371	     -2.39093592	    115.59641894	      2.01753811	    -13.15512003
     15.26000000	     -1.55784711	     -4.02869423	     -3.84206675	      2.22355730	      0.90783076	      1.02858200	     21.35916245	      5.75558920	     -4.09056153	     45.90109710	      0.80112527	     23.08407883	     16.82662239	     -6.38075159	     -2.13629289	    117.27989798	      2.04692037	    -12.19772532
     15.26666667	     -1.72052312	     -3.12395392	     -4.00441662	      2.22117958	      0.90735726	      1.02939512	     19.55404284	      4.96843455	     -3.10937573	     45.97792585	      0.80246619	     24.90666904	     20.10215451	     -5.69442079	     -1.99583803	    118.52743421	      2.06869398	    -11.34864828
     15.27333333	     -1.57474135	     -2.41511536	     -4.22860681	      2.21953573	      0.90816178	      1.03059140	     16.98419225	      4.37747225	     -2.12008286	     45.28347396	      0.79034572	     26.24982135	     22.84079784	     -5.37628697	     -2.03730756	    119.21208094	      2.08064332	    -10.47980466
     15.28000000	     -1.36433451	     -1.38963363	     -4.35516253	      2.21824718	      0.90960154	      1.03191976	     14.19467036	      3.33480037	     -1.30492311	     44.27376520	      0.77272298	     27.29006097	     25.43007696	     -4.74910043	     -2.26472959	    119.42248602	      2.08431558	     -9.50781171
     15.28666667	     -1.43861351	     -0.51082442	     -4.38595010	      2.21717469	      0.91119071	      1.03339931	     11.49862459	      2.46776011	     -0.56807606	     42.81418415	      0.74724848	     27.69779159	     28.29335775	     -4.36637175	     -2.44208123	    119.36795463	      2.08336383	     -8.60680139
     15.29333333	     -1.56230184	      0.29159973	     -4.19540842	      2.21642715	      0.91317423	      1.03484727	      8.66754239	      1.60121456	     -0.23971146	     40.96367996	      0.71495109	     27.47610498	     31.13227289	     -4.00509596	     -2.48066425	    118.99897526	      2.07692392	     -7.71975406
     15.30000000	     -2.01826235	      1.23101128	     -4.24917349	      2.21614681	      0.91534697	      1.03668431	      6.13345213	      0.67862218	      0.38475199	     38.90439816	      0.67900984	     26.63285602	     34.10947981	     -3.72324695	     -2.94229823	    118.21322050	      2.06320992	     -6.90912260
     15.30666667	     -1.90262190	      2.16691540	     -4.05549914	      2.21666356	      0.91873675	      1.03839153	      2.71493539	     -0.35437177	      0.53036574	     36.31001679	      0.63372934	     25.07170248	     36.20128225	     -3.31057663	     -3.35194768	    116.97220879	      2.04155018	     -6.08733319
     15.31333333	     -2.21154076	      3.24630312	     -4.01651839	      2.21750902	      0.92206844	      1.04020537	     -0.18568634	     -1.50872737	      0.73352754	     33.67754413	      0.58778403	     22.80253011	     38.55633253	     -2.89235019	     -4.08096171	    115.40071469	      2.01412243	     -5.37140090
     15.32000000	     -3.18698703	      4.24626556	     -4.12985491	      2.21854488	      0.92495136	      1.04208712	     -2.23141017	     -2.54062825	      1.05197985	     31.12993445	      0.54331985	     19.78742711	     41.46708791	     -2.74195486	     -4.96545476	    113.60019894	      1.98269750	     -4.76311934
